<svg width="696" height="805" viewBox="0 0 696 805" fill="none" xmlns="http://www.w3.org/2000/svg">
<path d="M439.824 428.995H633.947V183L439.824 183V428.995Z" fill="#F0F0F0"/>
<path d="M459.165 404.506H614.626V207.49L459.165 207.49V404.506Z" fill="#FAFAFA"/>
<path d="M646.308 183.019H633.967V429.014H646.308V183.019Z" fill="#E0E0E0"/>
<path d="M514.276 309.034C505.932 317.378 501.245 328.694 501.245 340.494C501.245 352.294 505.932 363.611 514.276 371.955C522.62 380.299 533.937 384.986 545.736 384.986C557.536 384.986 568.853 380.299 577.197 371.955C594.571 354.581 531.65 291.66 514.276 309.034Z" fill="#F5F5F5"/>
<path d="M578.065 303.751C584.629 297.184 588.316 288.279 588.314 278.994C588.312 269.71 584.622 260.806 578.055 254.242C571.489 247.677 562.583 243.991 553.299 243.993C544.014 243.994 535.11 247.685 528.546 254.251C514.932 267.981 564.393 317.481 578.065 303.751Z" fill="#EBEBEB"/>
<path d="M518.113 287.688L518.422 298.544C518.408 298.683 518.356 298.815 518.273 298.926C518.19 299.038 518.079 299.125 517.95 299.178C517.822 299.232 517.681 299.249 517.544 299.229C517.406 299.209 517.276 299.152 517.168 299.065L515.24 297.503L508.935 280.611L518.113 287.688Z" fill="#E0E0E0"/>
<path d="M521.545 284.256L533.771 283.214C533.907 283.213 534.039 283.17 534.15 283.092C534.261 283.014 534.346 282.905 534.394 282.778C534.442 282.651 534.451 282.512 534.419 282.38C534.386 282.248 534.315 282.129 534.215 282.038L532.286 280.476L512.444 277.082L521.545 284.256Z" fill="#E0E0E0"/>
<path d="M527.697 289.057L524.245 292.49L521.063 288.787L523.146 286.705L527.697 289.057Z" fill="#E0E0E0"/>
<path d="M499.022 266.631L482.67 253.866C481.609 253.036 472.643 247.406 471.698 248.351C470.753 249.296 478.158 256.469 479.238 257.317L495.57 270.083C498.83 273.851 502.334 277.4 506.06 280.708L519.366 291.101L525.536 284.95L512.231 274.537C507.992 271.637 503.581 268.997 499.022 266.631Z" fill="#EBEBEB"/>
<path d="M589.441 717.934H696V453.909H589.441V717.934Z" fill="#E6E6E6"/>
<path d="M390.131 717.934H612.717V453.909H390.131V717.934Z" fill="#F5F5F5"/>
<path d="M494.839 704.841H400.718V499.514C400.718 491.843 403.765 484.485 409.189 479.061C414.614 473.637 421.971 470.589 429.642 470.589H465.972C473.643 470.589 481 473.637 486.425 479.061C491.849 484.485 494.896 491.843 494.896 499.514V704.841H494.839Z" fill="#EBEBEB"/>
<path d="M599.93 704.841H505.809V499.514C505.809 491.843 508.857 484.485 514.281 479.061C519.706 473.637 527.063 470.589 534.734 470.589H571.064C578.735 470.589 586.092 473.637 591.516 479.061C596.941 484.485 599.988 491.843 599.988 499.514V704.841H599.93Z" fill="#EBEBEB"/>
<path d="M514.295 585.94C514.408 587.762 515.051 589.511 516.146 590.971C517.241 592.432 518.739 593.54 520.456 594.159C522.172 594.779 524.033 594.882 525.808 594.457C527.583 594.032 529.195 593.097 530.444 591.767C531.694 590.437 532.528 588.77 532.842 586.972C533.156 585.174 532.938 583.324 532.213 581.649C531.488 579.974 530.289 578.547 528.764 577.545C527.239 576.543 525.453 576.009 523.628 576.01C521.074 576.09 518.656 577.181 516.906 579.043C515.156 580.905 514.217 583.386 514.295 585.94Z" fill="#E0E0E0"/>
<path d="M466.126 585.94C466.239 587.761 466.882 589.509 467.976 590.969C469.069 592.429 470.566 593.538 472.282 594.158C473.998 594.777 475.857 594.882 477.632 594.459C479.406 594.035 481.018 593.102 482.269 591.774C483.52 590.446 484.355 588.781 484.671 586.984C484.987 585.187 484.772 583.337 484.05 581.662C483.328 579.986 482.132 578.559 480.609 577.554C479.086 576.55 477.303 576.013 475.478 576.01C474.212 576.047 472.966 576.334 471.81 576.853C470.655 577.372 469.613 578.114 468.744 579.037C467.876 579.959 467.197 581.043 466.748 582.228C466.299 583.413 466.087 584.674 466.126 585.94Z" fill="#E0E0E0"/>
<path d="M34.6464 717.78C34.3929 717.76 34.1457 717.691 33.9191 717.575C33.6925 717.46 33.491 717.301 33.3261 717.107C33.1612 716.914 33.0363 716.69 32.9584 716.448C32.8805 716.205 32.8513 715.95 32.8724 715.697L71.67 250.838H75.5267V254.695H75.276L36.7097 716.025C36.6655 716.53 36.4242 716.997 36.038 717.325C35.6519 717.654 35.1519 717.817 34.6464 717.78Z" fill="#E0E0E0"/>
<path d="M207.037 717.78C207.291 717.76 207.538 717.691 207.765 717.575C207.991 717.46 208.193 717.301 208.358 717.107C208.523 716.914 208.648 716.69 208.725 716.448C208.803 716.205 208.833 715.95 208.811 715.697L170.014 250.838H166.157V254.695H166.466L191.264 551.964H66.4633L41.3952 250.838H37.5386V254.695H37.8471L76.4134 716.025C76.4575 716.533 76.7016 717.004 77.092 717.333C77.4824 717.662 77.9873 717.822 78.496 717.78C78.7495 717.76 78.9967 717.691 79.2233 717.575C79.4498 717.46 79.6514 717.301 79.8163 717.107C79.9812 716.914 80.1061 716.69 80.184 716.448C80.2619 716.205 80.2911 715.95 80.27 715.697L66.9261 555.82H191.727L205.09 716.025C205.134 716.509 205.358 716.959 205.72 717.284C206.081 717.609 206.551 717.786 207.037 717.78Z" fill="#E0E0E0"/>
<path d="M215.965 490.566H31.6376L8.36279 211.693H192.69L215.965 490.566Z" fill="#F5F5F5"/>
<path d="M192.537 218.25H8.07419C6.45968 218.24 4.91476 217.591 3.77672 216.446C2.63869 215.3 1.99997 213.751 2 212.137C2 210.516 2.64403 208.961 3.79039 207.815C4.93676 206.668 6.49155 206.024 8.11275 206.024H192.575C194.197 206.024 195.751 206.668 196.898 207.815C198.044 208.961 198.688 210.516 198.688 212.137C198.688 212.943 198.529 213.741 198.219 214.485C197.91 215.229 197.456 215.905 196.884 216.473C196.312 217.041 195.634 217.491 194.888 217.795C194.142 218.1 193.343 218.255 192.537 218.25Z" fill="#EBEBEB"/>
<path d="M119.087 433.932L94.9636 459.521C94.6156 459.811 94.1951 460 93.7474 460.069C93.2997 460.137 92.8418 460.082 92.4231 459.909C92.0044 459.737 91.6408 459.453 91.3715 459.089C91.1021 458.725 90.9373 458.294 90.8948 457.843L89.8921 449.667L114.497 396.484L119.087 433.932Z" fill="#E0E0E0"/>
<path d="M134.86 433.951L165.27 459.54C165.573 459.868 165.973 460.091 166.411 460.178C166.848 460.266 167.303 460.213 167.709 460.027C168.115 459.841 168.452 459.532 168.672 459.143C168.892 458.754 168.983 458.306 168.934 457.862L167.912 449.686L130.271 396.484L134.86 433.951Z" fill="#E0E0E0"/>
<path d="M137.945 458.999H122.152L123.348 443.226H132.893L137.945 458.999Z" fill="#E0E0E0"/>
<path d="M123.599 341.97L115.423 275.308C114.902 270.95 107.266 237.533 102.908 237.533C98.5504 237.533 99.0517 270.95 99.6495 275.308L107.826 341.97C106.646 358.066 106.536 374.222 107.498 390.332L114.15 444.634H142.42L135.767 390.313C132.721 373.961 128.657 357.816 123.599 341.97Z" fill="#EBEBEB"/>
<path d="M182.664 464.727L174.854 464.708L175.105 454.179H179.829L182.664 464.727Z" fill="#E0E0E0"/>
<path d="M170.708 456.686L164.094 402.693C163.593 398.644 162.956 367.559 166.852 367.559C170.747 367.559 177.727 398.644 178.229 402.693L184.843 456.686H170.708Z" fill="#E0E0E0"/>
<path d="M86.286 464.708H78.457L78.7077 454.16H83.4514L86.286 464.708Z" fill="#E0E0E0"/>
<path d="M74.3316 456.666L67.7175 402.673C67.2161 398.624 66.5605 367.54 70.4749 367.54C74.3894 367.54 81.3506 398.624 81.8327 402.673L88.4468 456.666H74.3316Z" fill="#E0E0E0"/>
<path d="M97.2582 300.743L91.1454 292.007L90.0656 279.146H30.0757L31.5026 296.211H89.5642L97.2582 300.743Z" fill="#E0E0E0"/>
<path d="M130.137 347.022L136.249 338.287L137.329 325.425H197.3L195.873 342.491H137.831L130.137 347.022Z" fill="#E0E0E0"/>
<path d="M428.086 589.615C428.086 589.615 467.404 573.572 551.325 604.772L543.92 526.81L549.975 462.173L475.31 446.611L452.576 515.915L428.086 589.615Z" fill="#568AFF"/>
<path opacity="0.5" d="M428.086 589.615C428.086 589.615 467.404 573.572 551.325 604.772L543.92 526.81L549.975 462.173L475.31 446.611L452.576 515.915L428.086 589.615Z" fill="white"/>
<path d="M505.759 348.942C501.247 355.794 496.664 362.607 492.01 369.382L478.049 389.629C475.774 393.004 473.421 396.34 471.242 399.657C469.638 402.085 467.689 404.268 465.457 406.136C462.789 408.407 459.57 409.937 456.124 410.571C452.783 411.124 449.356 410.778 446.193 409.568C443.616 408.565 441.214 407.159 439.078 405.403C437.181 403.863 435.449 402.132 433.91 400.235C432.401 398.423 431.047 396.488 429.86 394.45L437.574 388.53C438.885 389.533 440.447 390.806 441.932 391.75C443.364 392.704 444.866 393.548 446.425 394.277C447.678 394.878 449.019 395.275 450.397 395.453C451.177 395.604 451.986 395.467 452.672 395.067C453.216 394.679 453.697 394.211 454.099 393.679C454.824 392.677 455.469 391.619 456.028 390.516C458.129 386.795 460.212 383.189 462.391 379.621C466.71 372.506 471.126 365.506 475.619 358.564C480.112 351.622 484.721 344.777 489.484 337.97L505.759 348.942Z" fill="#DEAFAD"/>
<path d="M438.731 389.919L427.894 377.847L422.784 393.602C422.784 393.602 431.23 402.202 435.434 396.745L438.731 389.919Z" fill="#FFBCB9"/>
<path d="M413.431 374.724L413.643 389.764L422.783 393.602L427.894 377.848L413.431 374.724Z" fill="#FFBCB9"/>
<path d="M499.106 327.596C481.211 336.35 455.237 385.792 452.113 391.963C450.879 394.393 441.565 389.263 441.565 389.263L433.852 403.051C433.852 403.051 442.51 415.315 456.992 413.309C471.473 411.304 478.647 395.762 482.831 387.682C486.109 381.396 493.186 369.151 496.657 362.961C500.9 355.229 514.61 320.018 499.106 327.596Z" fill="#568AFF"/>
<path opacity="0.7" d="M499.106 327.596C481.211 336.35 455.237 385.792 452.113 391.963C450.879 394.393 441.565 389.263 441.565 389.263L433.852 403.051C433.852 403.051 442.51 415.315 456.992 413.309C471.473 411.304 478.647 395.762 482.831 387.682C486.109 381.396 493.186 369.151 496.657 362.961C500.9 355.229 514.61 320.018 499.106 327.596Z" fill="white"/>
<path opacity="0.2" d="M476.757 398.48C478.929 394.983 480.924 391.379 482.735 387.682C485.376 382.61 490.448 373.605 494.304 367.087L495.616 346.57L492.376 342.521C469.159 383.073 472.9 395.646 476.757 398.48Z" fill="black"/>
<path d="M432.54 783.642L419.177 779.284L427.488 747.756L440.851 752.095L432.54 783.642Z" fill="#FFBCB9"/>
<path d="M418.965 777.51L433.987 782.389C434.115 782.422 434.235 782.481 434.34 782.562C434.444 782.642 434.532 782.743 434.596 782.858C434.661 782.974 434.702 783.101 434.717 783.232C434.731 783.363 434.719 783.496 434.681 783.623L431.557 795.752C431.358 796.377 430.92 796.897 430.338 797.201C429.757 797.504 429.079 797.566 428.453 797.372C423.246 795.579 420.855 794.46 414.241 792.32C410.172 791.008 392.76 785.821 387.148 783.989C381.537 782.157 383.504 776.681 386.03 776.951C397.426 778.147 411.657 779.323 416.401 777.587C417.225 777.284 418.125 777.257 418.965 777.51Z" fill="#263238"/>
<path opacity="0.2" d="M440.851 752.114L427.469 747.775L423.188 764.031L436.57 768.37L440.851 752.114Z" fill="black"/>
<path d="M473.441 432.901C473.441 432.901 454.447 547.327 448.835 587.166C442.665 630.881 418.464 758.786 418.464 758.786L443.282 765.632C443.282 765.632 478.724 641.737 488.771 599.257C499.685 553.131 523.692 432.862 523.692 432.862L473.441 432.901Z" fill="#568AFF"/>
<path opacity="0.3" d="M503.927 479.836C494.285 504.075 493.109 545.303 497.062 562.214C503.02 534.465 509.847 501.279 515.092 475.44C513.221 468.845 509.827 465.085 503.927 479.836Z" fill="black"/>
<path d="M443.898 766.172L417.326 758.844L417.847 748.026L447.774 758.362L443.898 766.172Z" fill="#568AFF"/>
<path d="M411.194 776.797C411.054 776.505 410.994 776.182 411.022 775.86C411.049 775.538 411.161 775.229 411.348 774.965C411.451 774.782 411.599 774.627 411.778 774.516C411.956 774.405 412.16 774.34 412.37 774.329C414.202 774.213 417.152 778.031 417.48 778.455C417.517 778.509 417.536 778.573 417.536 778.638C417.536 778.704 417.517 778.767 417.48 778.822C417.451 778.877 417.406 778.923 417.351 778.954C417.297 778.984 417.234 778.999 417.172 778.995C415.91 778.896 414.662 778.664 413.45 778.301C412.541 778.089 411.739 777.555 411.194 776.797ZM412.409 774.984C412.303 774.988 412.201 775.02 412.112 775.078C412.024 775.136 411.953 775.217 411.907 775.312C411.781 775.478 411.702 775.675 411.678 775.882C411.654 776.089 411.687 776.298 411.772 776.488C412.197 777.317 413.932 777.954 416.477 778.262C415.243 776.758 413.392 774.926 412.409 774.984Z" fill="#568AFF"/>
<path d="M416.979 778.879C415.899 777.645 414.819 774.213 415.591 772.863C415.731 772.618 415.951 772.427 416.213 772.322C416.476 772.217 416.766 772.204 417.037 772.285C417.285 772.325 417.521 772.422 417.725 772.57C417.93 772.717 418.097 772.91 418.213 773.133C419.139 774.888 417.596 778.629 417.519 778.783C417.5 778.836 417.467 778.882 417.422 778.917C417.378 778.951 417.324 778.971 417.268 778.976H417.114C417.062 778.955 417.016 778.922 416.979 778.879ZM416.979 772.921C416.516 772.824 416.343 772.921 416.246 773.172C415.933 774.837 416.279 776.558 417.21 777.973C417.858 776.555 418.034 774.967 417.712 773.442C417.587 773.213 417.381 773.041 417.133 772.959L416.979 772.921Z" fill="#568AFF"/>
<path d="M539.601 789.794H525.544L523.712 757.224H537.769L539.601 789.794Z" fill="#FFBCB9"/>
<path d="M524.81 788.154H540.603C540.868 788.149 541.124 788.246 541.318 788.426C541.512 788.606 541.629 788.854 541.644 789.118L542.396 801.614C542.397 802.269 542.14 802.898 541.683 803.366C541.225 803.835 540.602 804.106 539.947 804.121C534.452 804.024 531.81 803.696 524.868 803.696C520.606 803.696 502.422 804.14 496.522 804.14C490.621 804.14 490.737 798.355 493.301 797.777C504.505 795.405 518.37 792.146 522.38 789.022C523.072 788.472 523.926 788.167 524.81 788.154Z" fill="#263238"/>
<path opacity="0.2" d="M537.769 757.243H523.712L524.657 774.02H538.734L537.769 757.243Z" fill="black"/>
<path d="M500.899 432.168C500.899 432.168 501.342 539.614 503.637 579.858C506.125 623.939 518.717 769.951 518.717 769.951H544.479C544.479 769.951 543.708 627.487 545.25 583.85C546.947 536.471 551.305 432.149 551.305 432.149L500.899 432.168Z" fill="#568AFF"/>
<path d="M545.424 769.97H517.599L516.056 760.194L546.755 761.717L545.424 769.97Z" fill="#568AFF"/>
<path d="M517.174 789.871C516.963 789.629 516.815 789.338 516.744 789.025C516.673 788.712 516.682 788.386 516.769 788.077C516.808 787.87 516.899 787.676 517.034 787.514C517.169 787.352 517.344 787.227 517.541 787.152C519.257 786.477 523.229 789.196 523.673 789.523C523.726 789.558 523.768 789.607 523.792 789.666C523.816 789.725 523.821 789.789 523.808 789.851C523.797 789.914 523.767 789.971 523.722 790.016C523.677 790.061 523.619 790.091 523.557 790.102C522.331 790.402 521.077 790.57 519.816 790.603C518.875 790.691 517.935 790.43 517.174 789.871ZM517.772 787.769C517.675 787.806 517.59 787.868 517.525 787.95C517.461 788.031 517.419 788.129 517.406 788.232C517.337 788.427 517.322 788.638 517.363 788.842C517.403 789.045 517.498 789.234 517.637 789.388C518.293 790.044 520.144 790.121 522.67 789.62C521.031 788.598 518.717 787.402 517.772 787.769Z" fill="#568AFF"/>
<path d="M523.325 790.063C521.918 789.234 519.835 786.303 520.144 784.76C520.207 784.488 520.358 784.244 520.575 784.066C520.791 783.888 521.059 783.786 521.339 783.777C521.589 783.735 521.845 783.754 522.087 783.831C522.328 783.908 522.548 784.042 522.727 784.22C524.154 785.589 523.827 789.639 523.807 789.812C523.808 789.869 523.792 789.926 523.761 789.974C523.731 790.022 523.686 790.059 523.634 790.082H523.499C523.44 790.094 523.38 790.087 523.325 790.063ZM521.397 784.413C520.915 784.413 520.818 784.702 520.78 784.895C520.568 785.898 521.956 788.135 523.171 789.157C523.348 787.611 523.024 786.049 522.245 784.702C522.156 784.609 522.048 784.535 521.928 784.486C521.809 784.436 521.681 784.411 521.551 784.413H521.397Z" fill="#568AFF"/>
<path d="M579.787 343.196C573.625 358.355 568.604 373.954 564.765 389.861C562.027 400.949 559.906 411.612 558.209 421.292C554.236 444.008 552.636 461.517 551.247 467.341L474.366 451.779C473.806 367.608 499.125 327.596 499.125 327.596C505.402 327.247 511.694 327.292 517.965 327.731C519.295 327.731 520.626 327.943 521.995 328.097C533.04 329.673 543.985 331.882 554.776 334.711C556.82 335.232 558.884 335.81 560.87 336.408C570.955 339.455 579.787 343.196 579.787 343.196Z" fill="#568AFF"/>
<path opacity="0.7" d="M579.787 343.196C573.625 358.355 568.604 373.954 564.765 389.861C562.027 400.949 559.906 411.612 558.209 421.292C554.236 444.008 552.636 461.517 551.247 467.341L474.366 451.779C473.806 367.608 499.125 327.596 499.125 327.596C505.402 327.247 511.694 327.292 517.965 327.731C519.295 327.731 520.626 327.943 521.995 328.097C533.04 329.673 543.985 331.882 554.776 334.711C556.82 335.232 558.884 335.81 560.87 336.408C570.955 339.455 579.787 343.196 579.787 343.196Z" fill="white"/>
<path d="M523.615 343.89C520.606 349.27 516.461 353.416 511.273 367.936C511.601 371.252 512.083 374.588 512.72 377.982C515.092 375.263 517.598 372.564 520.201 369.883C524.058 355.652 523.268 351.564 526.681 344.622L523.615 343.89Z" fill="#568AFF"/>
<path d="M522.901 348.576L521.648 340.805L527.298 339.59L530.73 342.752L522.901 348.576Z" fill="#568AFF"/>
<path d="M560.774 336.408C543.081 348.202 526.937 362.169 512.72 377.982C509.365 360.049 510.175 343.272 516.153 327.614C510.475 327.297 504.784 327.297 499.106 327.614C499.106 327.614 473.788 367.608 474.366 451.779L551.267 467.34C552.656 461.555 554.256 444.008 558.229 421.292C559.926 411.65 562.085 400.948 564.785 389.86C568.624 373.953 573.645 358.355 579.806 343.195C579.806 343.195 570.956 339.454 560.774 336.408Z" fill="#263238"/>
<path d="M558.518 297.224C554.43 307.329 548.664 326.149 554.661 334.711C550.761 337.439 546.317 339.292 541.635 340.144C536.952 340.996 532.141 340.826 527.53 339.647C518.524 337.603 519.276 331.182 521.976 328.077C534.24 327.653 535.609 318.879 535.146 310.279L558.518 297.224Z" fill="#FFBCB9"/>
<path d="M527.298 339.59C527.298 339.59 529.824 344.661 532.967 349.81C539.562 347.882 555.239 342.405 556.358 334.383C555.882 332.599 554.814 331.028 553.33 329.929C545.229 334.529 536.439 337.791 527.298 339.59Z" fill="white"/>
<path d="M527.298 339.59C523.804 341.456 520.591 343.806 517.753 346.57C514.109 342.714 519.682 328.656 521.61 327.383C523.553 326.498 525.726 326.248 527.819 326.67C527.819 326.67 520.839 336.447 527.298 339.59Z" fill="white"/>
<path opacity="0.2" d="M548.972 302.566L535.146 310.279C535.33 312.281 535.33 314.295 535.146 316.296C539.755 316.546 546.851 312.883 548.22 308.274C548.818 306.433 549.073 304.499 548.972 302.566Z" fill="black"/>
<path d="M531.83 260.625C527.838 265.002 523.827 275.917 532.563 275.84C541.298 275.762 538.695 253.163 531.83 260.625Z" fill="#263238"/>
<path d="M565.46 284.729C560.118 298.227 557.746 306.423 548.413 311.166C534.472 318.282 519.489 306.249 520.742 291.363C521.822 277.98 530.384 258.118 545.656 257.174C549.038 256.967 552.418 257.622 555.479 259.076C558.54 260.529 561.183 262.735 563.161 265.487C565.139 268.239 566.387 271.447 566.789 274.812C567.191 278.177 566.734 281.589 565.46 284.729Z" fill="#FFBCB9"/>
<path d="M543.303 281.548C542.936 282.666 542.049 283.38 541.374 283.129C540.699 282.878 540.352 281.779 540.719 280.661C541.085 279.542 541.972 278.732 542.647 279.06C543.322 279.388 543.669 280.429 543.303 281.548Z" fill="#263238"/>
<path d="M530.634 277.266C530.267 278.404 529.38 279.098 528.706 278.867C528.031 278.635 527.664 277.498 528.031 276.379C528.397 275.261 529.303 274.547 529.959 274.798C530.615 275.049 531 276.148 530.634 277.266Z" fill="#263238"/>
<path d="M534.49 279.195C532.025 282.056 529.168 284.555 526.006 286.619C526.612 287.397 527.376 288.04 528.246 288.505C529.116 288.97 530.074 289.247 531.058 289.319L534.49 279.195Z" fill="#DE9191"/>
<path d="M532.871 295.585C532.368 295.491 531.872 295.362 531.386 295.2C531.299 295.169 531.226 295.106 531.183 295.023C531.14 294.941 531.13 294.846 531.155 294.756C531.168 294.711 531.19 294.67 531.22 294.633C531.249 294.597 531.286 294.568 531.327 294.546C531.369 294.524 531.414 294.511 531.461 294.508C531.507 294.504 531.554 294.51 531.598 294.525C532.958 295.042 534.42 295.233 535.867 295.082C537.314 294.932 538.705 294.443 539.929 293.657C539.959 293.624 539.997 293.597 540.038 293.579C540.08 293.561 540.124 293.551 540.17 293.551C540.215 293.551 540.26 293.561 540.301 293.579C540.343 293.597 540.38 293.624 540.411 293.657C540.473 293.722 540.508 293.808 540.508 293.898C540.508 293.988 540.473 294.074 540.411 294.139C539.32 294.884 538.088 295.396 536.791 295.645C535.494 295.894 534.16 295.873 532.871 295.585Z" fill="#263238"/>
<path d="M548.548 278.771C548.429 278.743 548.32 278.686 548.229 278.605C548.138 278.524 548.069 278.422 548.027 278.308C547.773 277.468 547.322 276.701 546.711 276.07C546.101 275.44 545.349 274.964 544.518 274.683C544.341 274.633 544.19 274.517 544.097 274.359C544.003 274.201 543.975 274.013 544.016 273.834C544.039 273.745 544.078 273.662 544.133 273.589C544.188 273.515 544.257 273.453 544.336 273.407C544.415 273.36 544.502 273.33 544.593 273.317C544.684 273.304 544.776 273.31 544.865 273.333C545.919 273.674 546.876 274.263 547.655 275.052C548.434 275.841 549.011 276.805 549.338 277.864C549.394 278.036 549.381 278.222 549.302 278.384C549.223 278.546 549.084 278.671 548.914 278.732C548.797 278.774 548.671 278.787 548.548 278.771Z" fill="#263238"/>
<path d="M526.604 271.058C526.477 271.042 526.357 270.991 526.259 270.91C526.16 270.829 526.086 270.722 526.045 270.601C526.005 270.48 526 270.35 526.03 270.226C526.061 270.102 526.126 269.989 526.218 269.901C526.967 269.092 527.9 268.478 528.937 268.108C529.975 267.739 531.086 267.626 532.177 267.779C532.358 267.815 532.518 267.922 532.621 268.075C532.724 268.229 532.762 268.417 532.727 268.599C532.691 268.78 532.584 268.94 532.431 269.043C532.277 269.146 532.089 269.184 531.907 269.148C531.045 269.03 530.167 269.124 529.35 269.423C528.534 269.723 527.802 270.217 527.221 270.865C527.145 270.949 527.047 271.011 526.939 271.045C526.83 271.079 526.715 271.083 526.604 271.058Z" fill="#263238"/>
<path d="M562.123 335.502C562.123 335.502 520.24 370.096 518.967 449.851C517.695 529.606 527.066 608.898 527.066 608.898H560.041C560.041 608.898 540.757 570.583 552.79 470.195C564.823 369.806 583.74 344.314 583.74 344.314L562.123 335.502Z" fill="#568AFF"/>
<path opacity="0.7" d="M562.123 335.502C562.123 335.502 520.24 370.096 518.967 449.851C517.695 529.606 527.066 608.898 527.066 608.898H560.041C560.041 608.898 540.757 570.583 552.79 470.195C564.823 369.806 583.74 344.314 583.74 344.314L562.123 335.502Z" fill="white"/>
<path opacity="0.2" d="M555.973 421.1L538.001 411.092L532.216 415.141C537.816 426.486 546.096 436.295 556.34 443.719C557.458 436.256 558.615 429.333 559.791 422.893L555.973 421.1Z" fill="black"/>
<path opacity="0.2" d="M574.156 365.526L571.321 351.083H565.69L563.299 363.559C565.034 373.59 565.911 383.75 565.922 393.93C568.853 381.974 571.63 372.718 574.156 365.526Z" fill="black"/>
<path d="M515.902 327.21C515.902 327.21 502.789 338.683 495.211 390.844C487.633 443.005 449.645 526.27 433.871 597.309L420.759 591.968C420.759 591.968 436.282 553.652 456.78 495.725C477.278 437.799 471.917 428.022 476.68 393.872C481.443 359.721 498.354 327.036 498.354 327.036L515.902 327.21Z" fill="#568AFF"/>
<path opacity="0.7" d="M515.902 327.21C515.902 327.21 502.789 338.683 495.211 390.844C487.633 443.005 449.645 526.27 433.871 597.309L420.759 591.968C420.759 591.968 436.282 553.652 456.78 495.725C477.278 437.799 471.917 428.022 476.68 393.872C481.443 359.721 498.354 327.036 498.354 327.036L515.902 327.21Z" fill="white"/>
<path d="M549.918 279.446L539.004 275.917C538.845 275.888 538.681 275.888 538.522 275.917C538.187 275.917 537.861 276.024 537.591 276.222C537.32 276.419 537.12 276.697 537.018 277.016C536.596 276.626 536.095 276.332 535.55 276.152C535.004 275.972 534.426 275.912 533.855 275.975C533.961 275.584 533.914 275.167 533.724 274.81C533.534 274.452 533.216 274.179 532.833 274.047L524.503 271.193C524.343 271.165 524.18 271.165 524.021 271.193C523.684 271.192 523.355 271.298 523.081 271.495C522.807 271.693 522.603 271.971 522.497 272.292L520.801 277.518C520.695 277.909 520.742 278.325 520.932 278.683C521.122 279.041 521.44 279.313 521.823 279.446L530.211 282.165C530.37 282.191 530.533 282.191 530.693 282.165C531.03 282.165 531.359 282.06 531.633 281.862C531.906 281.665 532.111 281.386 532.216 281.066L533.585 276.843C534.152 276.698 534.747 276.714 535.306 276.887C535.864 277.061 536.363 277.386 536.748 277.826L535.379 282.088C535.269 282.479 535.313 282.897 535.504 283.256C535.694 283.615 536.015 283.887 536.401 284.016L547.296 287.564C547.456 287.583 547.618 287.583 547.778 287.564C548.112 287.561 548.436 287.453 548.706 287.256C548.976 287.059 549.177 286.782 549.282 286.465L550.998 281.22C551.058 280.844 550.983 280.459 550.785 280.134C550.587 279.809 550.28 279.565 549.918 279.446ZM531.271 280.873C531.224 281.003 531.137 281.116 531.023 281.195C530.909 281.274 530.774 281.317 530.635 281.316H530.442L522.054 278.578C521.97 278.555 521.891 278.514 521.825 278.457C521.758 278.4 521.705 278.33 521.668 278.25C521.634 278.171 521.617 278.086 521.617 278C521.617 277.913 521.634 277.828 521.668 277.749L523.365 272.504C523.413 272.374 523.499 272.261 523.613 272.182C523.727 272.102 523.863 272.06 524.002 272.06H524.194L532.583 274.799C532.669 274.818 532.749 274.857 532.816 274.915C532.883 274.972 532.936 275.044 532.968 275.126C533.002 275.206 533.02 275.291 533.02 275.377C533.02 275.463 533.002 275.549 532.968 275.628L531.271 280.873ZM550.053 281.162L548.356 286.407C548.309 286.537 548.222 286.65 548.108 286.729C547.994 286.809 547.859 286.851 547.72 286.851H547.527L536.613 283.302C536.53 283.276 536.454 283.234 536.388 283.178C536.322 283.122 536.267 283.053 536.228 282.976C536.188 282.899 536.165 282.815 536.158 282.729C536.151 282.642 536.162 282.556 536.189 282.473L537.905 277.248C537.946 277.115 538.027 276.999 538.138 276.916C538.249 276.833 538.383 276.787 538.522 276.785C538.591 276.767 538.664 276.767 538.734 276.785L549.629 280.314C549.714 280.34 549.792 280.383 549.86 280.44C549.928 280.497 549.983 280.568 550.023 280.647C550.062 280.726 550.085 280.813 550.091 280.901C550.096 280.99 550.083 281.079 550.053 281.162Z" fill="#263238"/>
<path d="M502.115 406.387L498.393 407.39L499.396 403.668L520.877 382.186C521.239 381.827 521.727 381.626 522.237 381.626C522.746 381.626 523.235 381.827 523.596 382.186C523.955 382.548 524.157 383.037 524.157 383.546C524.157 384.055 523.955 384.544 523.596 384.905L502.115 406.387Z" fill="#263238"/>
<path opacity="0.8" d="M502.115 406.387L498.393 407.39L499.396 403.668L520.877 382.186C521.239 381.827 521.727 381.626 522.237 381.626C522.746 381.626 523.235 381.827 523.596 382.186C523.955 382.548 524.157 383.037 524.157 383.546C524.157 384.055 523.955 384.544 523.596 384.905L502.115 406.387Z" fill="white"/>
<path opacity="0.2" d="M520.877 382.186L499.434 403.668L498.432 407.389L523.635 382.186C523.455 382.003 523.241 381.857 523.004 381.757C522.767 381.658 522.513 381.606 522.256 381.606C521.999 381.606 521.745 381.658 521.508 381.757C521.271 381.857 521.057 382.003 520.877 382.186Z" fill="black"/>
<path d="M518.77 384.291L517.679 385.381L520.392 388.095L521.483 387.004L518.77 384.291Z" fill="#568AFF"/>
<path d="M532.215 401.374L521.764 390.806L515.246 408.47C515.246 408.47 526.141 415.45 530.46 410.032L532.215 401.374Z" fill="#FFBCB9"/>
<path d="M509.692 389.263L504.987 404.092L515.265 408.469L521.783 390.806L509.692 389.263Z" fill="#FFBCB9"/>
<path d="M594.056 407.061C593.81 401.252 593.263 395.459 592.417 389.706C590.769 378.479 588.431 367.364 585.417 356.424L566.5 361.534C569.026 371.734 571.379 382.379 573.192 392.734C574.098 397.921 574.831 403.108 575.274 408.16C575.486 410.667 575.602 413.135 575.563 415.449C575.57 417.338 575.402 419.223 575.062 421.08C574.133 421.001 573.212 420.852 572.305 420.636C567.525 419.386 562.876 417.681 558.421 415.546C553.658 413.386 548.895 410.937 544.151 408.411C539.408 405.885 534.625 403.185 529.997 400.543L524.212 408.353C532.69 415.908 541.821 422.696 551.498 428.639C556.64 431.865 562.124 434.51 567.85 436.526C569.535 437.094 571.264 437.526 573.018 437.818C575.227 438.217 577.484 438.269 579.709 437.972C581.202 437.731 582.654 437.29 584.029 436.661C585.673 435.882 587.158 434.803 588.406 433.479C589.469 432.286 590.346 430.941 591.009 429.487C591.468 428.519 591.861 427.52 592.186 426.499C593.208 423.152 593.823 419.695 594.017 416.201C594.152 413.077 594.152 410.031 594.056 407.061Z" fill="#DEAFAD"/>
<path d="M529.515 415.141L536.65 403.089C536.65 403.089 567.175 419.364 572.729 418.245C572.729 418.245 578.514 413.116 562.489 360.975C560.831 355.575 561.371 343.928 576.855 342.906C593.902 341.788 595.232 379.101 596.563 398.827C597.893 418.554 598.125 443.179 575.351 440.903C552.578 438.628 529.515 415.141 529.515 415.141Z" fill="#568AFF"/>
<path opacity="0.7" d="M529.515 415.141L536.65 403.089C536.65 403.089 567.175 419.364 572.729 418.245C572.729 418.245 578.514 413.116 562.489 360.975C560.831 355.575 561.371 343.928 576.855 342.906C593.902 341.788 595.232 379.101 596.563 398.827C597.893 418.554 598.125 443.179 575.351 440.903C552.578 438.628 529.515 415.141 529.515 415.141Z" fill="white"/>
<path d="M484.741 424.108H436.957L412.737 357.523H453.444L484.741 424.108Z" fill="#263238"/>
<path opacity="0.6" d="M484.741 424.108H436.957L412.737 357.523H453.444L484.741 424.108Z" fill="white"/>
<path d="M481.134 429.777H436.088L409.266 356.096H454.33L481.134 429.777Z" fill="#568AFF"/>
<path d="M422.764 354.399L424.442 359.008C424.76 359.881 425.34 360.636 426.102 361.167C426.865 361.699 427.774 361.982 428.703 361.977H441.295C441.623 361.981 441.947 361.906 442.239 361.757C442.532 361.609 442.784 361.391 442.973 361.124C443.163 360.857 443.285 360.547 443.328 360.222C443.372 359.897 443.336 359.566 443.224 359.258L441.45 354.399H422.764Z" fill="#263238"/>
<path d="M420.99 354.399L422.667 359.008C422.984 359.878 423.561 360.63 424.32 361.162C425.079 361.693 425.983 361.978 426.91 361.977H439.521C439.849 361.981 440.173 361.906 440.465 361.757C440.757 361.609 441.009 361.391 441.199 361.124C441.388 360.857 441.51 360.547 441.554 360.222C441.598 359.897 441.562 359.566 441.449 359.258L439.656 354.399H420.99Z" fill="#568AFF"/>
<path opacity="0.5" d="M420.99 354.399L422.667 359.008C422.984 359.878 423.561 360.63 424.32 361.162C425.079 361.693 425.983 361.978 426.91 361.977H439.521C439.849 361.981 440.173 361.906 440.465 361.757C440.757 361.609 441.009 361.391 441.199 361.124C441.388 360.857 441.51 360.547 441.554 360.222C441.598 359.897 441.562 359.566 441.449 359.258L439.656 354.399H420.99Z" fill="black"/>
<path d="M558.826 291.343C557.903 288.068 557.827 284.612 558.607 281.3C559.386 277.987 560.994 274.927 563.281 272.407C563.281 272.407 540.623 272.967 542.069 266.179C542.069 266.179 521.205 260.876 526.739 251.042C530.866 243.675 536.921 249.576 536.921 249.576C536.921 249.576 536.554 242.056 543.863 241.111C551.576 240.108 552.675 246.24 552.675 246.24C552.675 246.24 558.73 241.111 565.363 244.023C567.019 244.705 568.345 246.002 569.064 247.642C569.783 249.281 569.839 251.136 569.22 252.816C569.22 252.816 578.11 253.375 580.906 259.931C581.644 261.595 581.95 263.419 581.795 265.232C581.64 267.046 581.029 268.791 580.019 270.306C580.019 270.306 586.71 271.848 584.473 279.947C584.201 281.521 583.423 282.964 582.258 284.057C581.092 285.15 579.602 285.832 578.013 286.002C578.256 288.002 577.859 290.028 576.879 291.788C575.898 293.548 574.385 294.952 572.556 295.798C565.768 298.902 558.826 291.343 558.826 291.343Z" fill="#263238"/>
<path d="M567.021 297.958C565.972 299.425 564.64 300.667 563.104 301.611C561.567 302.555 559.857 303.181 558.074 303.453C553.291 304.147 551.46 299.597 553.272 295.489C554.892 291.633 559.346 286.754 563.916 287.969C564.909 288.262 565.814 288.795 566.551 289.521C567.288 290.247 567.834 291.145 568.141 292.133C568.448 293.121 568.507 294.169 568.311 295.186C568.116 296.202 567.673 297.154 567.021 297.958Z" fill="#FFBCB9"/>
<path d="M544.865 292.925C543.4 288.374 533.469 291.806 533.469 291.806C526.72 288.489 526.701 290.533 526.72 292.211C526.72 297.61 527.144 310.742 536.805 311.321C546.466 311.899 546.35 297.514 544.865 292.925ZM540.276 306.423C536.246 309.45 536.284 298.266 536.284 298.266L532.216 297.34C532.216 297.34 536.381 304.456 532.987 306.346C529.593 308.235 528.533 292.462 528.533 292.462C530.013 293.212 531.656 293.583 533.315 293.542C537.615 295.759 539.37 292.038 541.433 293.542C543.496 295.046 544.326 303.299 540.276 306.365V306.423Z" fill="#263238"/>
<path d="M292.893 259.628H272.896C266.502 259.623 260.367 262.157 255.84 266.673C251.312 271.189 248.764 277.318 248.754 283.713V303.729C248.759 307.228 249.526 310.684 251.001 313.857C252.477 317.031 254.624 319.845 257.296 322.105L244.897 336.491C244.683 336.744 244.558 337.06 244.54 337.391C244.523 337.722 244.613 338.05 244.799 338.325C244.984 338.599 245.254 338.806 245.567 338.914C245.881 339.021 246.221 339.024 246.536 338.92L279.607 327.813H292.835C299.223 327.808 305.348 325.27 309.866 320.754C314.385 316.239 316.929 310.116 316.939 303.729V283.713C316.929 277.335 314.393 271.22 309.887 266.707C305.381 262.194 299.27 259.648 292.893 259.628ZM307.394 303.729C307.388 307.571 305.858 311.254 303.14 313.97C300.421 316.685 296.735 318.21 292.893 318.21H272.896C269.054 318.21 265.368 316.685 262.649 313.97C259.93 311.254 258.4 307.571 258.395 303.729V283.713C258.4 279.873 259.928 276.193 262.642 273.478C265.357 270.763 269.038 269.236 272.877 269.231H292.873C296.716 269.231 300.401 270.756 303.12 273.471C305.839 276.187 307.369 279.87 307.374 283.713L307.394 303.729Z" fill="#9CBAFF"/>
<path d="M294 283L273 304" stroke="white" stroke-width="6"/>
<path d="M294 304L273 283" stroke="white" stroke-width="6"/>
<path d="M272.317 155.054H256.254C251.14 155.054 246.235 157.086 242.619 160.702C239.003 164.318 236.971 169.223 236.971 174.337V190.4C236.974 193.208 237.59 195.98 238.776 198.525C239.961 201.07 241.688 203.325 243.836 205.133L233.847 216.703C233.68 216.905 233.584 217.157 233.572 217.419C233.56 217.682 233.633 217.941 233.781 218.158C233.928 218.375 234.142 218.539 234.391 218.624C234.639 218.709 234.909 218.712 235.159 218.631L261.75 209.741H272.375C274.907 209.741 277.415 209.243 279.754 208.273C282.094 207.304 284.22 205.884 286.01 204.093C287.801 202.303 289.221 200.177 290.19 197.837C291.16 195.498 291.658 192.99 291.658 190.458V174.395C291.666 171.853 291.171 169.335 290.202 166.985C289.232 164.635 287.808 162.5 286.01 160.702C284.213 158.905 282.078 157.48 279.728 156.511C277.378 155.542 274.859 155.047 272.317 155.054ZM283.887 190.439C283.887 193.507 282.668 196.45 280.498 198.62C278.329 200.79 275.386 202.009 272.317 202.009H256.254C253.186 202.009 250.243 200.79 248.073 198.62C245.903 196.45 244.685 193.507 244.685 190.439V174.376C244.685 171.307 245.903 168.365 248.073 166.195C250.243 164.025 253.186 162.806 256.254 162.806H272.317C275.386 162.806 278.329 164.025 280.498 166.195C282.668 168.365 283.887 171.307 283.887 174.376V190.439Z" fill="#9CBAFF"/>
<path d="M261.249 197.246C260.832 196.857 260.501 196.385 260.278 195.86C260.055 195.335 259.946 194.769 259.957 194.199C259.945 193.636 260.053 193.077 260.272 192.559C260.491 192.04 260.818 191.574 261.23 191.191C262.14 190.409 263.299 189.979 264.499 189.979C265.698 189.979 266.858 190.409 267.767 191.191C268.179 191.574 268.506 192.04 268.725 192.559C268.945 193.077 269.052 193.636 269.04 194.199C269.051 194.769 268.942 195.335 268.719 195.86C268.497 196.385 268.166 196.857 267.748 197.246C267.317 197.665 266.807 197.994 266.247 198.212C265.688 198.431 265.09 198.535 264.489 198.518C263.891 198.534 263.296 198.43 262.74 198.211C262.183 197.993 261.676 197.664 261.249 197.246ZM260.092 164.985H268.905L267.439 186.621H261.558L260.092 164.985Z" fill="white"/>
<path d="M37.8926 436.686V456.683C37.9028 463.073 40.4456 469.198 44.9637 473.716C49.4819 478.234 55.6069 480.777 61.9965 480.787H75.2055L108.353 491.894C108.669 492.008 109.015 492.013 109.334 491.907C109.653 491.802 109.928 491.593 110.114 491.313C110.3 491.034 110.388 490.7 110.362 490.364C110.337 490.029 110.2 489.713 109.973 489.464L97.5354 475.06C100.213 472.805 102.365 469.991 103.841 466.817C105.316 463.643 106.08 460.184 106.078 456.683V436.686C106.073 430.299 103.534 424.174 99.0191 419.655C94.504 415.136 88.381 412.593 81.9931 412.583H61.9965C55.6069 412.593 49.4819 415.135 44.9637 419.654C40.4456 424.172 37.9028 430.297 37.8926 436.686ZM47.5342 436.686C47.5393 432.847 49.0666 429.167 51.7814 426.452C54.4961 423.737 58.1766 422.21 62.0158 422.205H82.0317C85.8709 422.21 89.5514 423.737 92.2661 426.452C94.9809 429.167 96.5083 432.847 96.5134 436.686V456.683C96.5134 460.526 94.9882 464.211 92.2729 466.93C89.5577 469.649 85.8742 471.179 82.0317 471.184H61.9965C58.154 471.179 54.4706 469.649 51.7553 466.93C49.04 464.211 47.5149 460.526 47.5149 456.683L47.5342 436.686Z" fill="#9CBAFF"/>
<path d="M70.9242 447.774C71.8807 446.479 72.9732 445.289 74.183 444.226C75.0159 443.498 75.7837 442.697 76.4777 441.835C76.9611 441.205 77.2191 440.431 77.2105 439.637C77.2297 439.093 77.1107 438.553 76.8645 438.067C76.6183 437.582 76.253 437.166 75.8028 436.86C74.7034 436.13 73.3991 435.772 72.0812 435.838C70.7395 435.829 69.4157 436.146 68.2245 436.764C67.0704 437.393 66.0746 438.277 65.3128 439.348L59.5278 435.993C60.8582 433.967 62.7192 432.346 64.9078 431.307C67.4176 430.141 70.1634 429.573 72.9296 429.648C76.0109 429.495 79.0637 430.303 81.6649 431.962C82.7169 432.667 83.5719 433.628 84.1488 434.755C84.7258 435.882 85.0058 437.138 84.9623 438.403C84.9855 439.572 84.769 440.734 84.326 441.816C83.9478 442.727 83.4199 443.567 82.764 444.304C82.009 445.123 81.2109 445.902 80.3729 446.637C79.4364 447.434 78.5777 448.319 77.8083 449.279C77.2553 450.024 76.97 450.935 76.9984 451.863H69.8636C69.794 450.424 70.1639 448.998 70.9242 447.774ZM70.1721 462.488C69.7518 462.1 69.4179 461.629 69.1919 461.104C68.966 460.579 68.8532 460.012 68.8609 459.441C68.8424 458.875 68.9485 458.313 69.1718 457.793C69.3951 457.273 69.73 456.809 70.1528 456.433C70.5887 456.025 71.1011 455.707 71.6605 455.499C72.2199 455.29 72.8151 455.195 73.4117 455.218C74.6219 455.174 75.8002 455.611 76.6898 456.433C77.1091 456.81 77.4405 457.276 77.6604 457.795C77.8803 458.315 77.9834 458.877 77.9625 459.441C77.9702 460.012 77.8574 460.579 77.6315 461.104C77.4055 461.629 77.0715 462.1 76.6513 462.488C75.7643 463.292 74.6094 463.738 73.4117 463.738C72.214 463.738 71.0591 463.292 70.1721 462.488Z" fill="white"/>
<path d="M221.929 706.101L176.402 706.082L185.407 660.554L212.943 660.574L221.929 706.101Z" fill="#263238"/>
<path d="M176.421 633.751L97.746 707.606C96.8019 708.489 95.6203 709.077 94.3465 709.297C93.0727 709.518 91.7622 709.362 90.5761 708.848C89.39 708.333 88.3799 707.484 87.6702 706.403C86.9604 705.323 86.5819 704.058 86.5811 702.766V679.124L176.421 525.65V633.751Z" fill="#568AFF"/>
<path opacity="0.5" d="M176.421 633.751L97.746 707.606C96.8019 708.489 95.6203 709.077 94.3465 709.297C93.0727 709.518 91.7622 709.362 90.5761 708.848C89.39 708.333 88.3799 707.484 87.6702 706.403C86.9604 705.323 86.5819 704.058 86.5811 702.766V679.124L176.421 525.65V633.751Z" fill="white"/>
<path d="M221.949 633.77L300.586 707.605C301.526 708.49 302.705 709.08 303.977 709.302C305.249 709.525 306.558 709.371 307.743 708.858C308.928 708.345 309.937 707.497 310.646 706.418C311.355 705.339 311.732 704.076 311.732 702.784V679.182L221.949 525.669V633.77Z" fill="#568AFF"/>
<path opacity="0.5" d="M221.949 633.77L300.586 707.605C301.526 708.49 302.705 709.08 303.977 709.302C305.249 709.525 306.558 709.371 307.743 708.858C308.928 708.345 309.937 707.497 310.646 706.418C311.355 705.339 311.732 704.076 311.732 702.784V679.182L221.949 525.669V633.77Z" fill="white"/>
<path d="M222.007 368.357V175.988C222.007 163.416 211.844 67 199.272 67C186.699 67 176.479 163.416 176.479 175.988V368.357C165.604 420.942 158.43 493.833 158.43 507.929V664.643H239.998V507.929C239.998 493.852 232.863 420.962 222.007 368.357Z" fill="#568AFF"/>
<path opacity="0.5" d="M222.007 368.357V175.988C222.007 163.416 211.844 67 199.272 67C186.699 67 176.479 163.416 176.479 175.988V368.357C165.604 420.942 158.43 493.833 158.43 507.929V664.643H239.998V507.929C239.998 493.852 232.863 420.962 222.007 368.357Z" fill="white"/>
<path d="M271.603 722.569H249.042L253.515 692.159H267.148L271.603 722.569Z" fill="#263238"/>
<path d="M239.94 699.391V543.66C239.94 531.975 249.1 442.289 260.361 442.289C271.623 442.289 280.763 531.975 280.763 543.699V699.429L239.94 699.391Z" fill="#568AFF"/>
<path opacity="0.2" d="M262.559 443.426C269.482 472.775 272.856 530.547 272.471 540.285L266.242 699.41H280.724V543.679C280.762 532.746 272.798 453.665 262.559 443.426Z" fill="black"/>
<path d="M280.763 548.519H239.979V570.849H280.763V548.519Z" fill="#263238"/>
<path d="M280.763 548.519H239.979V570.849H280.763V548.519Z" fill="white"/>
<path d="M149.271 722.549L126.709 722.53L131.183 692.121H144.816L149.271 722.549Z" fill="#263238"/>
<path d="M117.627 699.372V543.699C117.627 532.013 126.786 442.327 138.048 442.327C149.309 442.327 158.411 532.033 158.411 543.718V699.449L117.627 699.372Z" fill="#568AFF"/>
<path opacity="0.2" d="M140.227 443.426C147.15 472.794 150.524 530.547 150.139 540.285L143.91 699.41H158.392V543.679C158.43 532.707 150.409 453.646 140.227 443.426Z" fill="black"/>
<path d="M158.43 548.48H117.646V570.81H158.43V548.48Z" fill="#263238"/>
<path d="M158.43 548.48H117.646V570.81H158.43V548.48Z" fill="white"/>
<path d="M222.064 187.539V175.969C222.064 175.969 222.064 175.718 222.064 175.641H176.556C176.556 175.738 176.556 175.911 176.556 175.988V187.558L222.064 187.539Z" fill="#568AFF"/>
<path d="M222.026 353.74H176.498V366.313H222.026V353.74Z" fill="#568AFF"/>
<path d="M176.422 651.974H164.833L170.637 604.421L176.422 604.441V651.974Z" fill="#263238"/>
<path d="M194.625 651.993L183.036 651.973L186.912 604.44H194.644L194.625 651.993Z" fill="#263238"/>
<path d="M212.828 651.993H201.258V604.44H208.99L212.828 651.993Z" fill="#263238"/>
<path d="M231.031 651.993H219.461V604.44H225.266L231.031 651.993Z" fill="#263238"/>
<path d="M184.039 203.891C183.251 203.891 182.496 203.579 181.939 203.022C181.382 202.465 181.069 201.709 181.069 200.922V197.432C181.069 197.04 181.147 196.652 181.297 196.291C181.448 195.929 181.668 195.601 181.946 195.325C182.224 195.049 182.553 194.831 182.916 194.682C183.278 194.534 183.667 194.459 184.058 194.462C184.846 194.462 185.601 194.775 186.158 195.332C186.715 195.889 187.028 196.644 187.028 197.432V200.922C187.028 201.313 186.95 201.701 186.8 202.063C186.65 202.424 186.429 202.752 186.151 203.028C185.873 203.305 185.544 203.523 185.181 203.671C184.819 203.819 184.431 203.894 184.039 203.891Z" fill="#263238"/>
<path d="M193.39 203.891C192.603 203.891 191.848 203.579 191.291 203.022C190.734 202.465 190.421 201.709 190.421 200.922V197.432C190.421 196.644 190.734 195.889 191.291 195.332C191.848 194.775 192.603 194.462 193.39 194.462C194.178 194.462 194.933 194.775 195.49 195.332C196.047 195.889 196.36 196.644 196.36 197.432V200.922C196.36 201.709 196.047 202.465 195.49 203.022C194.933 203.579 194.178 203.891 193.39 203.891Z" fill="#263238"/>
<path d="M202.724 203.891C201.936 203.891 201.181 203.579 200.624 203.022C200.067 202.465 199.754 201.709 199.754 200.922V197.432C199.754 196.644 200.067 195.889 200.624 195.332C201.181 194.775 201.936 194.462 202.724 194.462C203.512 194.462 204.267 194.775 204.824 195.332C205.381 195.889 205.694 196.644 205.694 197.432V200.922C205.694 201.709 205.381 202.465 204.824 203.022C204.267 203.579 203.512 203.891 202.724 203.891Z" fill="#263238"/>
<path d="M212.114 203.911C211.722 203.911 211.334 203.833 210.973 203.683C210.611 203.532 210.283 203.312 210.007 203.034C209.731 202.756 209.513 202.427 209.365 202.064C209.216 201.702 209.142 201.313 209.144 200.922V197.432C209.144 196.644 209.457 195.889 210.014 195.332C210.571 194.775 211.326 194.462 212.114 194.462C212.901 194.462 213.657 194.775 214.214 195.332C214.77 195.889 215.083 196.644 215.083 197.432V200.941C215.083 201.729 214.77 202.484 214.214 203.041C213.657 203.598 212.901 203.911 212.114 203.911Z" fill="#263238"/>
<path d="M184.039 219.298C183.251 219.298 182.496 218.985 181.939 218.428C181.382 217.871 181.069 217.116 181.069 216.329V212.838C181.069 212.447 181.147 212.059 181.297 211.697C181.448 211.336 181.668 211.008 181.946 210.732C182.224 210.456 182.553 210.237 182.916 210.089C183.278 209.941 183.667 209.866 184.058 209.869C184.846 209.869 185.601 210.182 186.158 210.738C186.715 211.295 187.028 212.051 187.028 212.838V216.329C187.028 216.72 186.95 217.108 186.8 217.469C186.65 217.831 186.429 218.159 186.151 218.435C185.873 218.711 185.544 218.93 185.181 219.078C184.819 219.226 184.431 219.301 184.039 219.298Z" fill="#263238"/>
<path d="M193.39 219.298C192.603 219.298 191.848 218.985 191.291 218.429C190.734 217.872 190.421 217.116 190.421 216.329V212.838C190.421 212.051 190.734 211.296 191.291 210.739C191.848 210.182 192.603 209.869 193.39 209.869C194.178 209.869 194.933 210.182 195.49 210.739C196.047 211.296 196.36 212.051 196.36 212.838V216.329C196.36 217.116 196.047 217.872 195.49 218.429C194.933 218.985 194.178 219.298 193.39 219.298Z" fill="#263238"/>
<path d="M202.724 219.298C201.936 219.298 201.181 218.985 200.624 218.429C200.067 217.872 199.754 217.116 199.754 216.329V212.838C199.754 212.051 200.067 211.296 200.624 210.739C201.181 210.182 201.936 209.869 202.724 209.869C203.512 209.869 204.267 210.182 204.824 210.739C205.381 211.296 205.694 212.051 205.694 212.838V216.329C205.694 217.116 205.381 217.872 204.824 218.429C204.267 218.985 203.512 219.298 202.724 219.298Z" fill="#263238"/>
<path d="M212.114 219.298C211.326 219.298 210.571 218.985 210.014 218.429C209.457 217.872 209.144 217.116 209.144 216.329V212.838C209.144 212.051 209.457 211.296 210.014 210.739C210.571 210.182 211.326 209.869 212.114 209.869C212.901 209.869 213.657 210.182 214.213 210.739C214.77 211.296 215.083 212.051 215.083 212.838V216.329C215.086 216.719 215.011 217.107 214.862 217.468C214.714 217.83 214.495 218.158 214.219 218.434C213.943 218.711 213.615 218.929 213.253 219.078C212.892 219.226 212.504 219.301 212.114 219.298Z" fill="#263238"/>
<path d="M158.43 507.928V514.774H239.998V508.025C239.998 503.243 239.149 491.596 237.645 476.362H160.802C159.279 491.499 158.43 503.204 158.43 507.928Z" fill="#568AFF"/>
<path opacity="0.2" d="M222.007 368.357V175.989C222.007 164.129 212.944 77.6445 201.355 68.0029C209.859 94.2087 214.333 160.562 213.966 170.994L212.269 365.311C221.679 420.19 226.462 496.243 225.941 510.956L220.542 664.701H239.825V507.987C239.998 493.852 232.864 420.962 222.007 368.357Z" fill="black"/>
</svg>
