<svg width="50" height="50" viewBox="0 0 50 50" fill="none" xmlns="http://www.w3.org/2000/svg">
<path d="M41.6662 16.6667C43.3583 16.6668 45.0104 16.1517 46.4027 15.19C47.795 14.2284 48.8615 12.8657 49.4605 11.2831C50.0594 9.70056 50.1624 7.97318 49.7558 6.33067C49.3491 4.68817 48.4521 3.20837 47.1839 2.08807C45.9158 0.967763 44.3366 0.260044 42.6565 0.0590226C40.9763 -0.141999 39.2748 0.173203 37.7781 0.962712C36.2815 1.75222 35.0606 2.97863 34.278 4.47884C33.4953 5.97904 33.1878 7.68197 33.3965 9.36115L14.1183 19.0001C12.9411 17.8649 11.456 17.1012 9.84785 16.8041C8.23974 16.5069 6.57975 16.6895 5.07465 17.329C3.56954 17.9684 2.28586 19.0366 1.3835 20.4004C0.481147 21.7642 0 23.3634 0 24.9987C0 26.634 0.481147 28.2331 1.3835 29.5969C2.28586 30.9608 3.56954 32.0289 5.07465 32.6684C6.57975 33.3079 8.23974 33.4905 9.84785 33.1933C11.456 32.8962 12.9411 32.1325 14.1183 30.9973L33.3965 40.6362C33.1535 42.5869 33.6078 44.5607 34.6793 46.2088C35.7507 47.8569 37.3704 49.0731 39.2519 49.6426C41.1334 50.2121 43.1556 50.0982 44.9612 49.3209C46.7668 48.5436 48.2395 47.1531 49.119 45.3951C49.9986 43.6371 50.2283 41.6247 49.7676 39.7137C49.3069 37.8027 48.1855 36.1161 46.6015 34.9519C45.0175 33.7877 43.073 33.2209 41.1115 33.3518C39.1501 33.4826 37.298 34.3026 35.8827 35.6668L16.6044 26.0279C16.6884 25.3452 16.6884 24.6549 16.6044 23.9723L35.8827 14.3334C37.3772 15.7778 39.4161 16.6667 41.6662 16.6667Z" fill="white"/>
</svg>
