<svg width="48" height="48" viewBox="0 0 48 48" fill="none" xmlns="http://www.w3.org/2000/svg">
<path d="M34.83 28.7641C34.236 28.4661 31.314 27.0301 30.77 26.8301C30.224 26.6321 29.828 26.5341 29.43 27.1301C29.036 27.7241 27.896 29.0621 27.55 29.4581C27.204 29.8561 26.856 29.9041 26.262 29.6081C25.668 29.3081 23.752 28.6821 21.482 26.6581C19.716 25.0821 18.522 23.1361 18.176 22.5401C17.83 21.9461 18.14 21.6241 18.436 21.3281C18.704 21.0621 19.032 20.6341 19.328 20.2881C19.626 19.9401 19.724 19.6921 19.924 19.2941C20.122 18.8981 20.024 18.5521 19.874 18.2541C19.724 17.9561 18.536 15.0301 18.042 13.8401C17.558 12.6821 17.068 12.8401 16.704 12.8201C16.3242 12.805 15.9441 12.7983 15.564 12.8001C15.168 12.8001 14.524 12.9481 13.98 13.5441C13.436 14.1381 11.9 15.5761 11.9 18.5021C11.9 21.4261 14.03 24.2521 14.326 24.6501C14.624 25.0461 18.518 31.0501 24.48 33.6241C25.898 34.2361 27.004 34.6021 27.868 34.8741C29.292 35.3281 30.588 35.2641 31.61 35.1101C32.752 34.9401 35.126 33.6721 35.622 32.2841C36.118 30.8961 36.118 29.7061 35.968 29.4581C35.82 29.2101 35.424 29.0621 34.828 28.7641H34.83ZM23.986 43.5701H23.978C20.4375 43.5704 16.9622 42.6185 13.916 40.8141L13.194 40.3861L5.712 42.3501L7.708 35.0541L7.238 34.3061C5.25888 31.1546 4.21188 27.5075 4.218 23.7861C4.22 12.8861 13.09 4.01808 23.994 4.01808C29.274 4.01808 34.238 6.07808 37.97 9.81408C39.8114 11.6473 41.2709 13.8275 42.264 16.2286C43.2572 18.6296 43.7643 21.2038 43.756 23.8021C43.75 34.7021 34.882 43.5701 23.986 43.5701V43.5701ZM40.812 6.97608C38.6084 4.75793 35.9865 2.99916 33.0982 1.80168C30.2099 0.60421 27.1127 -0.00815249 23.986 8.19551e-05C10.876 8.19551e-05 0.206 10.6701 0.2 23.7841C0.2 27.9761 1.294 32.0681 3.376 35.6741L0 48.0001L12.61 44.6921C16.0972 46.5919 20.0049 47.5876 23.976 47.5881H23.986C37.094 47.5881 47.766 36.9181 47.772 23.8021C47.7817 20.6766 47.1715 17.5803 45.9769 14.6921C44.7822 11.804 43.0267 9.18142 40.812 6.97608V6.97608Z" fill="#0078E7"/>
</svg>
